<?xml version="1.0" standalone="no"?>
<!DOCTYPE svg PUBLIC "-//W3C//DTD SVG 1.0//EN"
        "http://www.w3.org/TR/2001/REC-SVG-20010904/DTD/svg10.dtd">
<svg xmlns="http://www.w3.org/2000/svg"
     id="body_1" width="1500" height="934">
    <g transform="matrix(0.75 0 0 0.74959874 0 0)">
        <g transform="matrix(2 0 0 2 0 0)">
            <g transform="matrix(2.522267 0 0 2.522267 -0.34648812 0.63618314)">
                <g transform="matrix(1 0 0 1 0.24 -0.1)">
                    <g>
                    </g>
                    <g transform="matrix(1 0 0 1 0 0)">
                        <g>
                            <g transform="matrix(2.4547002 0 0 2.4547002 75.20173 1)">
                                <g>
                                    <path d="M30.449 21.133C 30.449 21.397 30.493 21.709 30.518 21.997C 30.522999 22.005 30.531 22.011 30.536999 22.015999C 31.370998 22.982998 32.534 23.47 33.729 23.474998C 34.709 23.47 35.677002 23.141998 36.473 22.461998C 37.446 21.623999 37.93 20.460999 37.935 19.270998C 37.93 18.284998 37.595 17.316998 36.906002 16.510998C 36.543003 16.081997 36.030003 15.537998 35.461002 14.952998C 34.915 15.0929985 34.355003 15.271998 33.813004 15.531998C 31.989 16.468 30.494 17.831 30.449 21.133zM23.677 14.742C 23.677 15.068 23.726 15.448 23.763 15.815C 25.18 16.91 26.574001 18.098 27.893002 19.338C 28.446001 16.085999 30.543001 14.046 32.646 13.091999C 32.865 12.988999 33.085 12.901999 33.303 12.813999C 31.834002 11.398999 30.216002 9.901999 28.704002 8.556999C 28.154003 8.693999 27.591002 8.874999 27.046001 9.138999C 25.223 10.075 23.727 11.434 23.677 14.742zM31.288 58.174C 29.616 58.15 28.009 58.602 26.826 59.231C 26.737 60.203 26.701 61.078 26.697 61.799C 26.697 63.131 26.802 63.974 26.83 64.18C 27.182 66.838 29.473999 68.772 32.064 68.772C 32.293 68.772 32.538998 68.756004 32.783 68.727005C 35.631 68.26501 37.193 66.34801 37.316 62.719006L37.316 62.719006L37.316 62.541004C 37.316 62.528004 37.293003 62.185005 37.298 61.949005C 37.293 61.823006 37.293 61.749004 37.293 61.727005C 37.297 61.397003 37.316998 61.011005 37.347 60.600006C 35.812 58.904 33.594 58.201 31.288 58.174zM25.879 6.696C 26.034 6.622 26.189 6.564 26.344 6.5C 26.197 6.375 26.067 6.27 25.928 6.154C 23.024 7.7479997 20.302 9.637 17.786 11.757999C 18.806 12.358 19.89 13.040999 21.026999 13.824999C 21.323 10.059 23.594 7.737 25.879 6.696zM89.3 63.458C 89.3 64.653 89.136 65.983 88.814 67.429C 89.284004 67.343 89.768005 67.236 90.234 67.158C 90.33 67.146996 91.791 66.939995 93.957 66.939995C 94.806 66.939995 95.778 66.979996 96.811005 67.06699C 98.228004 63.190994 99.22201 59.112995 99.64001 54.855995C 96.35601 55.413994 91.994 56.235996 87.57701 57.179996C 88.539 58.667 89.305 60.71 89.3 63.458zM81.301 37.774C 81.014 30.884998 78.022 29.213997 75.79 28.727999C 73.672 30.134998 70.85 31.308998 67.089005 32.309C 68.88801 34.032997 70.637 36.679996 70.68101 40.516C 70.68101 41.108997 70.61901 41.732998 70.52501 42.368C 74.643 41.225 78.187 39.768 81.301 37.774zM67.626 43.112C 67.858 42.169 67.974 41.298 67.974 40.515C 67.968 37.528 66.561 35.507 65.068 34.121C 64.61 33.698997 64.174 33.371998 63.765 33.094997C 61.003 33.677 57.849 34.205997 54.156998 34.678997C 55.402996 36.410995 56.503998 38.78 56.524 41.928997C 56.524 42.927 56.403 43.986996 56.154 45.101997C 60.407 44.524 64.216 43.898 67.626 43.112zM80.025 27.812C 81.92 29.316 83.452 31.911 83.896 35.909C 86.350006 33.884 88.305 31.567001 89.897 28.902C 89.89 28.891 91.07201 26.923 92.51 23.912C 90.415 20.499 87.967 17.330002 85.143005 14.523001C 82.18201 20.702 80.256004 24.393002 78.199005 26.691002C 78.806 26.977 79.422 27.332 80.025 27.812zM69.268 56.59C 76.121994 53.724 91.812 50.656 99.855995 49.332C 99.773994 42.377 98.26399 35.772 95.615 29.775002C 94.974 30.959002 94.557 31.657001 94.542 31.684002C 92.563 35.005 90.031 38.004 86.786 40.558002C 78.687004 46.772003 68.865005 48.88 55.890003 50.612003C 47.701004 51.855003 45.894005 54.047005 44.351006 56.059002C 43.107006 57.784 42.702007 60.454002 42.706005 61.65L42.706005 61.65L42.707005 61.65C 42.707005 61.724003 42.707005 61.724003 42.707005 61.729L42.707005 61.729L41.330006 61.729L42.707005 61.8C 42.713005 62.012 42.718006 62.13 42.728004 62.447C 42.728004 62.502 42.728004 62.597 42.735004 62.718998C 42.857006 68.293 39.234005 73.39 33.481003 74.095C 33.030003 74.153 32.562004 74.19 32.065002 74.19C 26.775002 74.185005 22.194002 70.277 21.470001 64.91C 21.413002 64.51501 21.284 63.415005 21.284 61.789005C 21.296 58.110004 21.875 51.109005 26.58 44.070007C 31.346 36.820007 40.420998 30.860008 53.159 29.346008C 65.137 27.922009 71.307 25.634008 73.593 23.666008C 74.649 23.008007 77.04 19.013008 80.94 10.826008C 72.421 4.067 61.664 0 49.939 0C 43.348 0 37.07 1.307 31.308 3.628C 34.662003 6.558 38.912003 10.556 41.012 12.983C 42.575 14.792 43.348 17.045 43.348 19.271C 43.353 21.958 42.213 24.66 40.003998 26.57C 38.197 28.114 35.948997 28.889 33.728996 28.889C 31.041996 28.894 28.332996 27.759 26.435997 25.555C 23.210997 21.715 16.769997 17.275002 13.705997 15.643001C 5.232 24.591 0 36.642 0 49.938C 0 72.914 15.533 92.22 36.65 98.045C 42.612 74.489 55.594 62.201 69.268 56.59zM71.375 73.571C 72.741 72.72 74.138 71.967 75.554 71.332C 77.392 70.536 79.263 69.892 81.132 69.315C 81.61201 68.151 81.855 66.959 81.855 65.803C 81.836006 63.115 80.662 60.702003 78.58501 59.293C 75.606 60.072 73.03701 60.857998 71.366005 61.579998C 69.41601 62.395996 67.48801 63.37 65.59601 64.483C 66.18001 64.742004 66.77101 65.075005 67.34801 65.499C 69.362 66.966 70.997 69.565 71.375 73.571zM41.947 99.192C 44.556 99.613 47.212997 99.89 49.939 99.89C 50.735 99.89 51.510998 99.808 52.297 99.770996C 53.137 96.826 54.239002 94.02599 55.557 91.392C 51.105 91.365 47.813 89.771996 45.637 88.211C 44.233 91.505 42.997 95.157 41.947 99.192zM91.066 72.506C 86.740005 73.236 82.035 74.42 77.725006 76.288994C 69.70801 79.825 61.842007 88.29399 58.152008 99.157C 74.10701 96.513 87.48301 86.332 94.52501 72.368C 94.336006 72.363 94.13401 72.353 93.95701 72.353C 92.137 72.354 91.002 72.517 91.066 72.506zM39.924 52.935C 40.072 52.718002 40.257 52.497 40.425 52.275C 37.35 49.118 34.696 48.295002 32.615997 48.284C 31.674997 48.284 30.837997 48.467 30.100998 48.716C 28.629997 51.315 27.784998 53.842 27.309998 56.088C 28.548998 55.693 29.903997 55.483 31.286997 55.466C 33.520996 55.445 35.906 56.077 37.872997 57.489C 38.26 56.038 38.885 54.465 39.924 52.935zM62.562 66.424C 60.304 68.008 58.122 69.851006 56.051 72.006004C 58.947998 72.749 62.275997 74.79 64.054 79.452C 65.541 77.950005 67.118004 76.59801 68.747 75.386C 68.611 68.225 65.083 66.808 62.562 66.424zM53.881 74.42C 51.259 77.562 48.86 81.270996 46.764 85.659996C 46.969 85.822 47.147 85.975 47.38 86.13699C 49.225002 87.413994 51.953003 88.687 55.608 88.687C 56.069 88.687 56.592003 88.60999 57.089 88.56799C 58.53 86.11399 60.157 83.83499 61.938 81.76299C 60.262 75.837 56.641 74.682 53.881 74.42zM47.92 47.01C 47.647 40.748997 44.756996 38.552 42.809 37.630997C 38.119 39.679996 34.602997 42.519997 32.181 45.614C 32.329998 45.606 32.465 45.579 32.618 45.579C 35.458 45.563 38.84 46.802998 42.288002 50.296997C 43.651 49.088 45.485 47.943 47.92 47.01zM53.215 45.577C 53.625 44.229 53.815 43.01 53.819 41.93C 53.814 39.061 52.655 36.996002 51.463 35.576C 51.335003 35.425 51.216 35.317 51.09 35.18C 49.297 35.510002 47.571 35.901 45.993 36.414C 46.051 36.459 46.108 36.493 46.165 36.54C 48.261 38.214 50.263 41.266 50.611 46.15C 51.421 45.934 52.292 45.743 53.215 45.577zM85.873 68.036C 86.385 66.255005 86.6 64.732 86.6 63.458004C 86.585 60.631004 85.638 58.897003 84.672 57.819004C 83.681 58.042004 82.708 58.270004 81.751 58.500004C 83.56 60.453003 84.575 63.076004 84.559 65.804C 84.562 66.673004 84.434 67.56 84.233 68.438C 84.781 68.299 85.328 68.159 85.873 68.036z"
                                          stroke="none" fill="#FE6152" fill-rule="nonzero"/>
                                </g>
                            </g>
                        </g>
                    </g>
                </g>
            </g>
        </g>
    </g>
</svg>