<svg xmlns="http://www.w3.org/2000/svg" version="1.1" xmlns:xlink="http://www.w3.org/1999/xlink" xmlns:svgjs="http://svgjs.dev/svgjs" width="128" height="128" viewBox="0 0 128 128"><g transform="matrix(0.8046875,0,0,0.8046875,12.333870967741937,12.333870967741937)"><svg viewBox="0 0 155 155" data-background-color="#28353b" preserveAspectRatio="xMidYMid meet" height="128" width="128" xmlns="http://www.w3.org/2000/svg" xmlns:xlink="http://www.w3.org/1999/xlink"><g id="tight-bounds" transform="matrix(1,0,0,1,0.25,0.25)"><svg viewBox="0 0 154.5 154.5" height="154.5" width="154.5"><g><svg></svg></g><g><svg viewBox="0 0 154.5 154.5" height="154.5" width="154.5"><g transform="matrix(1,0,0,1,44.96490226073851,43.83165)"><svg viewBox="0 0 64.57019547852298 66.8367" height="66.8367" width="64.57019547852298"><g><svg viewBox="0 0 64.57019547852298 66.8367" height="66.8367" width="64.57019547852298"><g><svg viewBox="0 0 64.57019547852298 66.8367" height="66.8367" width="64.57019547852298"><g id="textblocktransform"><svg viewBox="0 0 64.57019547852298 66.8367" height="66.8367" width="64.57019547852298" id="textblock"><g><svg viewBox="0 0 64.57019547852298 66.8367" height="66.8367" width="64.57019547852298"><g transform="matrix(1,0,0,1,0,0)"><svg width="64.57019547852298" viewBox="2.59 -32.4 31.3 32.4" height="66.8367" data-palette-color="#ffffff"><g class="undefined-text-0" data-fill-palette-color="primary" id="text-0"><path d="M33.89-32.4L33.89-6.47 27.42 0 19.09 0 19.09-6.47 23.1-6.47 23.1-32.4 33.89-32.4ZM13.4-32.4L13.4-6.47 17.38-6.47 17.38 0 9.08 0 2.59-6.47 2.59-32.4 13.4-32.4Z" fill="#ffffff" data-fill-palette-color="primary"></path></g></svg></g></svg></g></svg></g></svg></g><g></g></svg></g></svg></g><g mask="url(#c0a998f3-612c-406c-9e9c-9847df803cb4)"><g transform="matrix(1.5266793472820104, 0, 0, 1.5266793472820104, 1.0259535489037859, 1)"><svg xmlns="http://www.w3.org/2000/svg" xmlns:xlink="http://www.w3.org/1999/xlink" version="1.1" x="0" y="0" viewBox="0 0 99.856 99.88999999999999" enable-background="new 0 0 99.856 99.89" xml:space="preserve" width="99.856" height="99.88999999999999" class="icon-none" data-fill-palette-color="accent" id="none"><g fill="#fe6152" data-fill-palette-color="accent"><path d="M30.449 21.133c0 0.264 0.044 0.576 0.069 0.864 0.005 0.008 0.013 0.014 0.019 0.019 0.834 0.967 1.997 1.454 3.192 1.459 0.98-0.005 1.948-0.333 2.744-1.013 0.973-0.838 1.457-2.001 1.462-3.191-0.005-0.986-0.34-1.954-1.029-2.76-0.363-0.429-0.876-0.973-1.445-1.558-0.546 0.14-1.106 0.319-1.648 0.579C31.989 16.468 30.494 17.831 30.449 21.133zM23.677 14.742c0 0.326 0.049 0.706 0.086 1.073 1.417 1.095 2.811 2.283 4.13 3.523 0.553-3.252 2.65-5.292 4.753-6.246 0.219-0.103 0.439-0.19 0.657-0.278-1.469-1.415-3.087-2.912-4.599-4.257-0.55 0.137-1.113 0.318-1.658 0.582C25.223 10.075 23.727 11.434 23.677 14.742zM31.288 58.174c-1.672-0.024-3.279 0.428-4.462 1.057-0.089 0.972-0.125 1.847-0.129 2.568 0 1.332 0.105 2.175 0.133 2.381 0.352 2.658 2.644 4.592 5.234 4.592 0.229 0 0.475-0.016 0.719-0.045 2.848-0.462 4.41-2.379 4.533-6.008v-0.178c0-0.013-0.023-0.356-0.018-0.592-0.005-0.126-0.005-0.2-0.005-0.222 0.004-0.33 0.024-0.716 0.054-1.127C35.812 58.904 33.594 58.201 31.288 58.174zM25.879 6.696c0.155-0.074 0.31-0.132 0.465-0.196-0.147-0.125-0.277-0.23-0.416-0.346-2.904 1.594-5.626 3.483-8.142 5.604 1.02 0.6 2.104 1.283 3.241 2.067C21.323 10.059 23.594 7.737 25.879 6.696zM89.3 63.458c0 1.195-0.164 2.525-0.486 3.971 0.47-0.086 0.954-0.193 1.42-0.271 0.096-0.011 1.557-0.218 3.723-0.218 0.849 0 1.821 0.04 2.854 0.127 1.417-3.876 2.411-7.954 2.829-12.211-3.284 0.558-7.646 1.38-12.063 2.324C88.539 58.667 89.305 60.71 89.3 63.458zM81.301 37.774c-0.287-6.889-3.279-8.56-5.511-9.046-2.118 1.407-4.94 2.581-8.701 3.581 1.799 1.724 3.548 4.371 3.592 8.207 0 0.593-0.062 1.217-0.156 1.852C74.643 41.225 78.187 39.768 81.301 37.774zM67.626 43.112c0.232-0.943 0.348-1.814 0.348-2.597-0.006-2.987-1.413-5.008-2.906-6.394-0.458-0.422-0.894-0.749-1.303-1.026-2.762 0.582-5.916 1.111-9.608 1.584 1.246 1.732 2.347 4.101 2.367 7.25 0 0.998-0.121 2.058-0.37 3.173C60.407 44.524 64.216 43.898 67.626 43.112zM80.025 27.812c1.895 1.504 3.427 4.099 3.871 8.097 2.454-2.025 4.409-4.342 6.001-7.007-0.007-0.011 1.175-1.979 2.613-4.99-2.095-3.413-4.543-6.582-7.367-9.389-2.961 6.179-4.887 9.87-6.944 12.168C78.806 26.977 79.422 27.332 80.025 27.812zM69.268 56.59c6.854-2.866 22.544-5.934 30.588-7.258-0.082-6.955-1.592-13.56-4.241-19.557-0.641 1.184-1.058 1.882-1.073 1.909-1.979 3.321-4.511 6.32-7.756 8.874-8.099 6.214-17.921 8.322-30.896 10.054-8.189 1.243-9.996 3.435-11.539 5.447-1.244 1.725-1.649 4.395-1.645 5.591h0.001c0 0.074 0 0.074 0 0.079h-1.377l1.377 0.071c0.006 0.212 0.011 0.33 0.021 0.647 0 0.055 0 0.15 0.007 0.272 0.122 5.574-3.501 10.671-9.254 11.376-0.451 0.058-0.919 0.095-1.416 0.095-5.29-0.005-9.871-3.913-10.595-9.28-0.057-0.395-0.186-1.495-0.186-3.121 0.012-3.679 0.591-10.68 5.296-17.719 4.766-7.25 13.841-13.21 26.579-14.724 11.978-1.424 18.148-3.712 20.434-5.68 1.056-0.658 3.447-4.653 7.347-12.84C72.421 4.067 61.664 0 49.939 0 43.348 0 37.07 1.307 31.308 3.628c3.354 2.93 7.604 6.928 9.704 9.355 1.563 1.809 2.336 4.062 2.336 6.288 0.005 2.687-1.135 5.389-3.344 7.299-1.807 1.544-4.055 2.319-6.275 2.319-2.687 0.005-5.396-1.13-7.293-3.334-3.225-3.84-9.666-8.28-12.73-9.912C5.232 24.591 0 36.642 0 49.938c0 22.976 15.533 42.282 36.65 48.107C42.612 74.489 55.594 62.201 69.268 56.59zM71.375 73.571c1.366-0.851 2.763-1.604 4.179-2.239 1.838-0.796 3.709-1.44 5.578-2.017 0.48-1.164 0.723-2.356 0.723-3.512-0.019-2.688-1.193-5.101-3.27-6.51-2.979 0.779-5.548 1.565-7.219 2.287-1.95 0.816-3.878 1.79-5.77 2.903 0.584 0.259 1.175 0.592 1.752 1.016C69.362 66.966 70.997 69.565 71.375 73.571zM41.947 99.192c2.609 0.421 5.266 0.698 7.992 0.698 0.796 0 1.572-0.082 2.358-0.119 0.84-2.945 1.942-5.745 3.26-8.379-4.452-0.027-7.744-1.62-9.92-3.181C44.233 91.505 42.997 95.157 41.947 99.192zM91.066 72.506c-4.326 0.73-9.031 1.914-13.341 3.783-8.017 3.536-15.883 12.005-19.573 22.868 15.955-2.644 29.331-12.825 36.373-26.789-0.189-0.005-0.391-0.015-0.568-0.015C92.137 72.354 91.002 72.517 91.066 72.506zM39.924 52.935c0.148-0.217 0.333-0.438 0.501-0.66-3.075-3.157-5.729-3.98-7.809-3.991-0.941 0-1.778 0.183-2.515 0.432-1.471 2.599-2.316 5.126-2.791 7.372 1.239-0.395 2.594-0.605 3.977-0.622 2.234-0.021 4.619 0.611 6.586 2.023C38.26 56.038 38.885 54.465 39.924 52.935zM62.562 66.424c-2.258 1.584-4.44 3.427-6.511 5.582 2.897 0.743 6.225 2.784 8.003 7.446 1.487-1.502 3.064-2.854 4.693-4.066C68.611 68.225 65.083 66.808 62.562 66.424zM53.881 74.42c-2.622 3.142-5.021 6.851-7.117 11.24 0.205 0.162 0.383 0.315 0.616 0.477 1.845 1.277 4.573 2.55 8.228 2.55 0.461 0 0.984-0.077 1.481-0.119 1.441-2.454 3.068-4.733 4.849-6.805C60.262 75.837 56.641 74.682 53.881 74.42zM47.92 47.01c-0.273-6.261-3.163-8.458-5.111-9.379-4.69 2.049-8.206 4.889-10.628 7.983 0.149-0.008 0.284-0.035 0.437-0.035 2.84-0.016 6.222 1.224 9.67 4.718C43.651 49.088 45.485 47.943 47.92 47.01zM53.215 45.577c0.41-1.348 0.6-2.567 0.604-3.647-0.005-2.869-1.164-4.934-2.356-6.354-0.128-0.151-0.247-0.259-0.373-0.396-1.793 0.33-3.519 0.721-5.097 1.234 0.058 0.045 0.115 0.079 0.172 0.126 2.096 1.674 4.098 4.726 4.446 9.61C51.421 45.934 52.292 45.743 53.215 45.577zM85.873 68.036c0.512-1.781 0.727-3.304 0.727-4.578-0.015-2.827-0.962-4.561-1.928-5.639-0.991 0.223-1.964 0.451-2.921 0.681 1.809 1.953 2.824 4.576 2.808 7.304 0.003 0.869-0.125 1.756-0.326 2.634C84.781 68.299 85.328 68.159 85.873 68.036z" fill="#fe6152" data-fill-palette-color="accent"></path></g></svg></g></g></svg></g><defs><mask id="c0a998f3-612c-406c-9e9c-9847df803cb4"><rect width="250" height="250" fill="white"></rect><rect width="71.02721502637527" height="98.3937815784" fill="black" x="89.48639248681236" y="75.8031092108" id="transform-me" transform="matrix(1,0,0,1,-47.75,-47.75)"></rect></mask></defs></svg><rect width="154.5" height="154.5" fill="none" stroke="none" visibility="hidden"></rect></g></svg></g></svg>